#!OML:ASF F:\VICON\USERDATA\INSTALL\rory3\rory3.ASF
:FULLY-SPECIFIED
:DEGREES
372
root 0.157669 25.7587 3.9811 -167.624 -1.35878 175.313
lowerback 9.22138 -0.151137 -2.41286
upperback 1.41502 -0.503192 1.35373
thorax -3.66918 -0.261709 2.82997
lowerneck -15.8582 2.66751 -9.90655
upperneck 39.6858 2.11761 1.72161
head 16.9358 -1.8323 2.48926
rclavicle -2.78299e-015 -6.36111e-015
rhumerus -28.6409 -3.14333 -76.391
rradius 42.2588
rwrist 15.514
rhand -21.3528 3.65496
rfingers 7.12502
rthumb 5.03368 -26.2653
lclavicle -2.78299e-015 -6.36111e-015
lhumerus -31.3451 4.00934 81.1155
lradius 42.4513
lwrist -2.71408
lhand -9.54263 25.5773
lfingers 7.12502
lthumb 16.424 54.902
rfemur -9.36261 -4.33886 23.9629
rtibia 4.77083e-015
rfoot -1.52418 -6.53124
rtoes 23.2769
lfemur -60.9822 7.26444 -21.9514
ltibia 103.29
lfoot -8.98268 -13.5724
ltoes -21.0724
373
root 0.155419 25.7715 3.94464 -167.698 -1.27906 175.229
lowerback 9.19231 -0.0955383 -2.42769
upperback 1.3776 -0.427255 1.35254
thorax -3.69683 -0.221697 2.82782
lowerneck -15.6778 2.68734 -9.92586
upperneck 39.6114 2.13417 1.71388
head 16.8478 -1.82562 2.48885
rclavicle -6.75868e-015 -1.43125e-014
rhumerus -28.6624 -2.93649 -76.3436
rradius 42.5547
rwrist 15.3868
rhand -21.3632 3.62832
rfingers 7.12502
rthumb 5.02364 -26.2921
lclavicle -6.75868e-015 -1.43125e-014
lhumerus -31.5277 3.97139 81.1285
lradius 42.4135
lwrist -2.78161
lhand -9.62956 25.7912
lfingers 7.12502
lthumb 16.3403 55.1229
rfemur -9.13083 -4.33999 23.8547
rtibia -2.06736e-014
rfoot -1.76641 -6.41082
rtoes 23.0208
lfemur -62.4425 7.4344 -22.5765
ltibia 104.239
lfoot -9.82975 -13.7386
ltoes -20.8839
374
root 0.15296 25.7814 3.90395 -167.851 -1.10953 175.253
lowerback 9.12309 -0.00582657 -2.34421
upperback 1.45981 -0.302702 1.35335
thorax -3.58156 -0.165754 2.76507
lowerneck -15.6058 2.67744 -10.0335
upperneck 39.5137 2.12386 1.84156
head 16.7718 -1.81426 2.56377
rclavicle -3.57812e-015 -3.73715e-014
rhumerus -28.479 -2.92586 -76.3024
rradius 42.7073
rwrist 15.5291
rhand -21.2621 3.81478
rfingers 7.12502
rthumb 5.12129 -26.1033
lclavicle -3.57812e-015 -3.73715e-014
lhumerus -31.4668 3.9375 81.1234
lradius 42.2475
lwrist -2.82097
lhand -9.7783 25.8966
lfingers 7.12502
lthumb 16.1971 55.2399
rfemur -8.8046 -4.23235 23.8419
rtibia -6.36111e-015
rfoot -2.06456 -6.26508
rtoes 22.9539
lfemur -63.754 7.72898 -23.1206
ltibia 105.041
lfoot -10.776 -13.919
ltoes -21.0369
375
root 0.150664 25.7852 3.86348 -167.96 -0.945089 175.304
lowerback 9.00876 0.0678078 -2.25226
upperback 1.53866 -0.196934 1.3757
thorax -3.44314 -0.119092 2.72221
lowerneck -15.631 2.69 -10.1651
upperneck 39.5046 2.15559 1.97377
head 16.7644 -1.79793 2.6533
rclavicle 3.57812e-015 0
rhumerus -28.1713 -2.90698 -76.2092
rradius 42.6779
rwrist 15.8043
rhand -21.2225 4.11261
rfingers 7.12502
rthumb 5.15949 -25.8046
lclavicle 3.57812e-015 0
lhumerus -31.4873 3.91235 81.1045
lradius 42.186
lwrist -2.86135
lhand -9.78433 25.6803
lfingers 7.12502
lthumb 16.1913 55.0241
rfemur -8.53001 -4.12089 23.8608
rtibia 4.77083e-014
rfoot -2.32472 -6.109
rtoes 23.1041
lfemur -65.1031 7.98012 -23.6428
ltibia 105.717
lfoot -11.7352 -14.1567
ltoes -21.4091
376
root 0.150755 25.7851 3.82903 -168.035 -0.865501 175.318
lowerback 9.02651 0.121762 -2.23568
upperback 1.49248 -0.120136 1.42019
thorax -3.50578 -0.0786081 2.75052
lowerneck -15.562 2.72898 -10.1972
upperneck 39.5989 2.18374 1.96581
head 16.7949 -1.80891 2.65739
rclavicle 3.18055e-015 -1.82882e-014
rhumerus -28.1358 -2.813 -76.0956
rradius 42.8157
rwrist 15.8845
rhand -21.0881 4.10229
rfingers 7.12502
rthumb 5.28926 -25.8117
lclavicle 3.18055e-015 -1.82882e-014
lhumerus -31.7331 3.90316 81.0972
lradius 42.2096
lwrist -2.85306
lhand -9.74215 25.5198
lfingers 7.12502
lthumb 16.2319 54.8603
rfemur -8.29629 -4.09804 23.863
rtibia -1.82882e-014
rfoot -2.54689 -5.98437
rtoes 23.2297
lfemur -66.4896 8.07614 -24.1907
ltibia 106.231
lfoot -12.4475 -14.4494
ltoes -21.9823
377
root 0.148033 25.7904 3.79558 -168.113 -0.802277 175.38
lowerback 9.1022 0.175422 -2.135
upperback 1.41158 -0.0353555 1.46621
thorax -3.63738 -0.033353 2.73239
lowerneck -15.4195 2.75422 -10.2373
upperneck 39.697 2.1461 2.01369
head 16.8123 -1.84347 2.67475
rclavicle -8.74653e-015 -5.40694e-014
rhumerus -28.2457 -2.82204 -76.0285
rradius 43.0161
rwrist 15.8108
rhand -21.1067 3.8533
rfingers 7.12502
rthumb 5.27136 -26.0611
lclavicle -8.74653e-015 -5.40694e-014
lhumerus -31.951 3.94987 81.1111
lradius 42.1295
lwrist -2.9376
lhand -9.58388 25.3727
lfingers 7.12502
lthumb 16.3843 54.7007
rfemur -8.07703 -4.0829 23.9085
rtibia -3.18055e-015
rfoot -2.75987 -5.83557
rtoes 22.999
lfemur -67.8497 8.09265 -24.6927
ltibia 106.563
lfoot -12.8792 -14.8244
ltoes -21.7585
